<svg xmlns="http://www.w3.org/2000/svg" width="23.125" height="20" viewBox="0 0 23.125 20">
  <path id="heart_10_" data-name="heart (10)" d="M11.563,54.594a.677.677,0,0,1-.339-.091,40.459,40.459,0,0,1-5.561-4,22.939,22.939,0,0,1-3.857-4.133A8.718,8.718,0,0,1,0,41.409a7.16,7.16,0,0,1,1.826-4.795,5.986,5.986,0,0,1,4.457-2.02,6.184,6.184,0,0,1,5.279,3.131,6.184,6.184,0,0,1,5.279-3.131,6.02,6.02,0,0,1,4.284,1.823,7.058,7.058,0,0,1,2,5,8.887,8.887,0,0,1-1.84,4.952A23.235,23.235,0,0,1,17.434,50.5a40.6,40.6,0,0,1-5.531,4,.678.678,0,0,1-.341.092Z" transform="translate(0 -34.594)" fill="#1d1f31"/>
</svg>
