<svg xmlns="http://www.w3.org/2000/svg" width="23.753" height="22.227" viewBox="0 0 23.753 22.227">
  <g id="add-to-favorites" transform="translate(0.83 -19.693)">
    <path id="Path_3212" data-name="Path 3212" d="M12.474,36.686a5.457,5.457,0,0,1,8.2-4.718q.205-.334.385-.683a8.961,8.961,0,0,0,.683-1.854,7.02,7.02,0,0,0,.17-1.851c-.176-3.5-3.23-6.7-6.392-6.882a4.853,4.853,0,0,0-3.275,1.093l-1.2,1.023-1.2-1.022a5.322,5.322,0,0,0-1.124-.685,4.68,4.68,0,0,0-2.15-.408C3.407,20.882.352,24.077.176,27.582a7.02,7.02,0,0,0,.17,1.851,12.035,12.035,0,0,0,.683,1.854,17.139,17.139,0,0,0,3.836,4.6,53.473,53.473,0,0,0,4.368,3.516l1.809,1.287,1.81-1.287.245-.184a5.427,5.427,0,0,1-.624-2.536Z" fill="none" stroke="#1d1f31" stroke-width="2"/>
    <path id="Path_3213" data-name="Path 3213" d="M327.388,302.66a4.008,4.008,0,1,0,4.008,4.009,4.008,4.008,0,0,0-4.008-4.009Zm2.578,4.562a.622.622,0,0,1-.5.427c-.065.012-.625.028-1.041.043-.013.416-.029.978-.043,1.041a.622.622,0,0,1-.427.5,2.4,2.4,0,0,1-1.109,0,.615.615,0,0,1-.425-.5c-.012-.065-.028-.625-.042-1.041-.416-.012-1.009-.029-1.074-.043a.62.62,0,0,1-.5-.427,2.382,2.382,0,0,1,0-1.109.62.62,0,0,1,.5-.427c.065-.012.658-.028,1.074-.043.013-.416.029-.977.042-1.041a.622.622,0,0,1,.425-.5,2.4,2.4,0,0,1,1.109,0,.622.622,0,0,1,.427.5c.012.065.028.625.043,1.041.416.013.977.029,1.041.043a.621.621,0,0,1,.5.427A2.4,2.4,0,0,1,329.967,307.222Z" transform="translate(-308.474 -268.983)" fill="#1d1f31"/>
  </g>
</svg>
