<svg id="Layer_1" data-name="Layer 1" xmlns="http://www.w3.org/2000/svg" viewBox="0 0 30 30"><defs><style>.cls-1{fill:#0f4c5c;}.cls-2{fill:none;}.cls-3{fill:#fff;}</style></defs><title>CheckNumber</title><g id="Number"><rect id="Shape-2" class="cls-1" width="30" height="30" rx="8"/><g id="Layer_2" data-name="Layer 2"><g id="invisible_box" data-name="invisible box"><rect id="Rectangle_185" data-name="Rectangle 185" class="cls-2" x="6" y="6" width="18" height="18"/></g><g id="icons_Q2" data-name="icons Q2"><g id="Group_2002" data-name="Group 2002"><path id="Path_3052" data-name="Path 3052" class="cls-3" d="M13.3,20.6l-3-3a.8.8,0,0,1-.1-1,.8.8,0,0,1,1-.2h.1L13.8,19l7.7-7.7a.8.8,0,0,1,1.1.1.7.7,0,0,1,0,.9l-8.3,8.3a.7.7,0,0,1-1,0Z" transform="translate(0.4 -0.2)"/><path id="Path_3053" data-name="Path 3053" class="cls-3" d="M10.1,20.8l-.6-.2-3-3a.8.8,0,0,1,0-1h0a.9.9,0,0,1,1.1,0h0l3,3a.8.8,0,0,1,0,1.1h0Z" transform="translate(0.4 -0.2)"/><path id="Path_3054" data-name="Path 3054" class="cls-3" d="M13.8,17.1a.5.5,0,0,1-.5-.3.8.8,0,0,1-.1-1h.1l4.5-4.5a.7.7,0,0,1,1,.1.7.7,0,0,1,0,.9l-4.5,4.5A.5.5,0,0,1,13.8,17.1Z" transform="translate(0.4 -0.2)"/></g></g></g></g></svg>