<svg xmlns="http://www.w3.org/2000/svg" width="18" height="18" viewBox="0 0 18 18">
  <g id="clock_5_" data-name="clock (5)" transform="translate(-1 -1)">
    <path id="Path_3222" data-name="Path 3222" d="M10,1a9,9,0,1,0,9,9,9,9,0,0,0-9-9Zm0,16.364A7.364,7.364,0,1,1,17.364,10,7.364,7.364,0,0,1,10,17.364Z" fill="#1d1f31"/>
    <path id="Path_3223" data-name="Path 3223" d="M12.636,10.389V5.818a.818.818,0,1,0-1.636,0v4.909a.818.818,0,0,0,.24.578l2.455,2.455A.818.818,0,1,0,14.851,12.6Z" transform="translate(-1.818 -0.727)" fill="#1d1f31"/>
  </g>
</svg>
