<svg xmlns="http://www.w3.org/2000/svg" width="16.325" height="18" viewBox="0 0 16.325 18">
  <path id="e-learning_1_" data-name="e-learning (1)" d="M13.761,3.762a.628.628,0,1,0,0,1.256Zm-6.7,1.256a.628.628,0,1,0,0-1.256ZM11.041,16.11a.628.628,0,0,0-1.256,0ZM7.9,17.994a.628.628,0,0,0,0,1.256Zm5.023,1.256a.628.628,0,1,0,0-1.256ZM11.041,2.872a.628.628,0,0,0-1.256,0ZM9.785,7.511a.628.628,0,0,0,1.256,0ZM7.732,1.881l-.069.624Zm2.681.834-.354.519.354.241.354-.241ZM7.732,6.883l-.069.624Zm2.681.856-.354.519a.628.628,0,0,0,.707,0Zm2.681-5.857.069.624Zm0,5,.069.624Zm4.226-.819v8.372h1.256V6.064Zm-1.046,9.418H4.552v1.256H16.273ZM3.506,14.436V6.064H2.25v8.372ZM13.761,5.017h2.512V3.761H13.761Zm-9.209,0H7.064V3.761H4.552Zm0,10.465a1.046,1.046,0,0,1-1.046-1.046H2.25a2.3,2.3,0,0,0,2.3,2.3Zm12.767-1.046a1.046,1.046,0,0,1-1.046,1.046v1.256a2.3,2.3,0,0,0,2.3-2.3Zm1.256-8.372a2.3,2.3,0,0,0-2.3-2.3V5.017a1.046,1.046,0,0,1,1.046,1.046Zm-15.069,0A1.046,1.046,0,0,1,4.552,5.017V3.761a2.3,2.3,0,0,0-2.3,2.3ZM9.785,16.11v2.512h1.256V16.11Zm.628,1.884H7.9V19.25h2.512Zm0,1.256h2.512V17.994H10.413ZM9.785,2.872V7.511h1.256V2.872ZM7.663,2.506a8.082,8.082,0,0,1,1.251.246,4.108,4.108,0,0,1,1.145.482L10.766,2.2a5.315,5.315,0,0,0-1.512-.653A9.334,9.334,0,0,0,7.8,1.257Zm0,5a7.618,7.618,0,0,1,1.244.255,4.28,4.28,0,0,1,1.152.5l.707-1.038a5.49,5.49,0,0,0-1.506-.662,8.867,8.867,0,0,0-1.46-.3Zm-1.227-5V6.175H7.692V2.508ZM7.8,6.258a.146.146,0,0,1-.088-.042.059.059,0,0,1-.021-.041H6.436A1.36,1.36,0,0,0,7.663,7.507Zm0-5A1.239,1.239,0,0,0,6.436,2.508H7.692c0-.012,0-.015,0-.012A.038.038,0,0,1,7.68,2.5l-.011,0H7.663Zm5.225,0a9.332,9.332,0,0,0-1.454.285,5.315,5.315,0,0,0-1.512.653l.707,1.038a4.108,4.108,0,0,1,1.145-.482,8.082,8.082,0,0,1,1.251-.246Zm0,5a8.867,8.867,0,0,0-1.46.3,5.49,5.49,0,0,0-1.506.662l.707,1.038a4.28,4.28,0,0,1,1.152-.5,7.618,7.618,0,0,1,1.244-.255Zm.109-3.751V6.175h1.256V2.508Zm.029,5a1.36,1.36,0,0,0,1.227-1.331H13.133a.059.059,0,0,1-.021.041.146.146,0,0,1-.088.042Zm0-5h-.006l-.011,0a.037.037,0,0,1-.013-.007s0,0,0,.012h1.256a1.239,1.239,0,0,0-1.364-1.251Z" transform="translate(-2.25 -1.25)" fill="#9a031e"/>
</svg>
