<svg xmlns="http://www.w3.org/2000/svg" width="16.326" height="18" viewBox="0 0 16.326 18">
  <path id="exam_3_" data-name="exam (3)" d="M8.948,10.25a.628.628,0,1,0,1.256,0Zm-3.349,0a.628.628,0,1,0,1.256,0Zm.628-2.3a.628.628,0,0,0,0,1.256ZM9.576,9.2a.628.628,0,0,0,0-1.256Zm-3.349,2.93a.628.628,0,0,0,0,1.256ZM14.6,13.39a.628.628,0,0,0,0-1.256ZM6.227,14.645a.628.628,0,0,0,0,1.256ZM10.413,15.9a.628.628,0,1,0,0-1.256ZM12.087,5.855a.628.628,0,0,0,0,1.256ZM14.6,7.11a.628.628,0,0,0,0-1.256Zm-.628-1.884a.628.628,0,1,0-1.256,0ZM12.715,7.738a.628.628,0,0,0,1.256,0ZM5.39,2.506H15.436V1.25H5.39ZM17.32,4.39V16.11h1.256V4.39Zm-1.884,13.6H5.39V19.25H15.436ZM3.506,16.11V4.39H2.25V16.11ZM5.39,17.994A1.884,1.884,0,0,1,3.506,16.11H2.25a3.14,3.14,0,0,0,3.14,3.14ZM17.32,16.11a1.884,1.884,0,0,1-1.884,1.884V19.25a3.139,3.139,0,0,0,3.14-3.14Zm-1.884-13.6A1.884,1.884,0,0,1,17.32,4.39h1.256a3.14,3.14,0,0,0-3.14-3.14ZM5.39,1.25A3.14,3.14,0,0,0,2.25,4.39H3.506A1.884,1.884,0,0,1,5.39,2.506ZM8.948,7.738V10.25H10.2V7.738ZM6.855,10.25V7.738H5.6V10.25ZM7.9,6.692A1.047,1.047,0,0,1,8.948,7.738H10.2a2.3,2.3,0,0,0-2.3-2.3Zm0-1.256a2.3,2.3,0,0,0-2.3,2.3H6.855A1.047,1.047,0,0,1,7.9,6.692ZM6.227,9.2H9.576V7.948H6.227Zm0,4.186H14.6V12.134H6.227Zm0,2.512h4.186V14.645H6.227Zm5.86-8.791H14.6V5.855H12.087Zm.628-1.884V7.738h1.256V5.227Z" transform="translate(-2.25 -1.25)" fill="#9a031e"/>
</svg>
