<svg id="facebook_4_" data-name="facebook (4)" xmlns="http://www.w3.org/2000/svg" width="32" height="32" viewBox="0 0 32 32">
  <path id="Path_3019" data-name="Path 3019" d="M16,32H8a8,8,0,0,1-8-8V8A8,8,0,0,1,8,0H24a8,8,0,0,1,8,8V24a8,8,0,0,1-8,8H21a2.5,2.5,0,1,0-5,0Z" transform="translate(0 0)" fill="#3764b9" fill-rule="evenodd"/>
  <path id="Path_3020" data-name="Path 3020" d="M15,9h9A4.5,4.5,0,0,0,24.46.023C24.307.014,24.155,0,24,0H8A8,8,0,0,0,0,8V24A15,15,0,0,1,15,9" fill="#507dd2" fill-rule="evenodd"/>
  <path id="Path_3021" data-name="Path 3021" d="M40,24a8,8,0,1,0,8,8V16a8,8,0,0,1-8,8" transform="translate(-16 -8)" fill="#1e4ba0" fill-rule="evenodd"/>
  <path id="Path_3022" data-name="Path 3022" d="M38,14a1,1,0,0,1-1,1H34a1,1,0,0,0-1,1v4h3.78a1,1,0,0,1,.981,1.2l-.6,3a1,1,0,0,1-.981.8H33V37H28V25H25a1,1,0,0,1-1-1V21a1,1,0,0,1,1-1h3V16a6,6,0,0,1,6-6h3a1,1,0,0,1,1,1Z" transform="translate(-12 -5)" fill="#fff" fill-rule="evenodd"/>
</svg>
