<svg xmlns="http://www.w3.org/2000/svg" width="18" height="18" viewBox="0 0 18 18">
  <path id="file_1_" data-name="file (1)" d="M5.227,5.436a.628.628,0,0,0,0,1.256Zm6.7,1.256a.628.628,0,0,0,0-1.256Zm-6.7,2.93a.628.628,0,0,0,0,1.256Zm6.7,1.256a.628.628,0,0,0,0-1.256Zm-6.7,2.93a.628.628,0,0,0,0,1.256Zm3.349,1.256a.628.628,0,0,0,0-1.256ZM4.39,2.506h8.372V1.25H4.39ZM16.948,17.994H4.39V19.25H16.948ZM2.506,16.11V4.39H1.25V16.11ZM15.273,7.529h1.674V6.273H15.273Zm2.721,1.047v8.372H19.25V8.576ZM15.9,16.948V6.9H14.645V16.948Zm1.047,1.047A1.046,1.046,0,0,1,15.9,16.948H14.645a2.3,2.3,0,0,0,2.3,2.3Zm1.047-1.047a1.046,1.046,0,0,1-1.047,1.047V19.25a2.3,2.3,0,0,0,2.3-2.3ZM14.645,4.39V6.9H15.9V4.39ZM4.39,17.994A1.884,1.884,0,0,1,2.506,16.11H1.25a3.14,3.14,0,0,0,3.14,3.14ZM12.762,2.506A1.884,1.884,0,0,1,14.645,4.39H15.9a3.14,3.14,0,0,0-3.14-3.14Zm4.186,5.023a1.046,1.046,0,0,1,1.047,1.047H19.25a2.3,2.3,0,0,0-2.3-2.3ZM4.39,1.25A3.14,3.14,0,0,0,1.25,4.39H2.506A1.884,1.884,0,0,1,4.39,2.506Zm.837,5.442h6.7V5.436h-6.7Zm0,4.186h6.7V9.622h-6.7Zm0,4.186H8.576V13.808H5.227Z" transform="translate(-1.25 -1.25)" fill="#9a031e"/>
</svg>
