<svg id="folder_4_" data-name="folder (4)" xmlns="http://www.w3.org/2000/svg" width="25.792" height="20" viewBox="0 0 25.792 20">
  <path id="Path_2470" data-name="Path 2470" d="M26.319,161.951a2.157,2.157,0,0,0-1.853-1.01H7.36a2.162,2.162,0,0,0-1.965,1.218L.87,171.645a1.628,1.628,0,0,0,1.592,1.214h18.2a2.053,2.053,0,0,0,1.837-1.136l3.911-7.838a1.978,1.978,0,0,0-.091-1.934Zm0,0" transform="translate(-0.827 -152.859)" fill="#1d1f31"/>
  <path id="Path_2471" data-name="Path 2471" d="M3.647,8.341A2.162,2.162,0,0,1,5.613,7.123H21.72V5.063a1.571,1.571,0,0,0-1.6-1.54H10.731a.05.05,0,0,1-.027-.006L9.023,1.166A1.614,1.614,0,0,0,7.708.5H1.6A1.571,1.571,0,0,0,0,2.04V15.988Zm0,0" transform="translate(0 -0.5)" fill="#1d1f31"/>
</svg>
