<svg xmlns="http://www.w3.org/2000/svg" width="51.118" height="77.111" viewBox="0 0 51.118 77.111">
  <g id="Group_2279" data-name="Group 2279" transform="translate(-424.882 -692.5)">
    <path id="svgexport-50" d="M36.2,2.045c-15.8,0-27.1,12.1-27.9,29.7l5.4-4.6a.992.992,0,1,1,1.3,1.5l-7.2,6.2a.972.972,0,0,1-1.4-.1l-6.2-7.2a.972.972,0,0,1,.1-1.4,1.854,1.854,0,0,1,.7-.2,1.136,1.136,0,0,1,.8.3l4.5,5.2c1-18.7,13-31.5,29.9-31.5a.945.945,0,0,1,1,1A1.1,1.1,0,0,1,36.2,2.045Z" transform="translate(424.959 745.633) rotate(-47)" fill="#0f4c5c"/>
    <path id="Path_2602" data-name="Path 2602" d="M189.4,106.8a3,3,0,1,1,3-3,1.2,1.2,0,0,0,2.4,0,5.409,5.409,0,0,0-4.2-5.264V97.2a1.2,1.2,0,1,0-2.4,0v1.336a5.4,5.4,0,0,0,1.2,10.664,3,3,0,1,1-3,3,1.2,1.2,0,1,0-2.4,0,5.409,5.409,0,0,0,4.2,5.264V118.8a1.2,1.2,0,1,0,2.4,0v-1.336a5.4,5.4,0,0,0-1.2-10.664Z" transform="translate(266.44 596.5)" fill="#5f0f40"/>
  </g>
</svg>
