<svg xmlns="http://www.w3.org/2000/svg" xmlns:xlink="http://www.w3.org/1999/xlink" width="74" height="71" viewBox="0 0 74 71">
  <defs>
    <linearGradient id="linear-gradient" x1="0.465" y1="0.512" x2="-0.546" y2="0.439" gradientUnits="objectBoundingBox">
      <stop offset="0" stop-color="#78a91f" stop-opacity="0"/>
      <stop offset="1" stop-color="#017b4e"/>
    </linearGradient>
    <linearGradient id="linear-gradient-2" x1="0.142" y1="0.108" x2="0.687" y2="0.761" gradientUnits="objectBoundingBox">
      <stop offset="0" stop-color="#fef0ae"/>
      <stop offset="1" stop-color="#fbc56d"/>
    </linearGradient>
    <linearGradient id="linear-gradient-3" x1="0.5" y1="0.453" x2="0.5" y2="1.191" gradientUnits="objectBoundingBox">
      <stop offset="0" stop-color="#dc8758" stop-opacity="0"/>
      <stop offset="0.215" stop-color="#dd8654" stop-opacity="0.216"/>
      <stop offset="0.429" stop-color="#e28448" stop-opacity="0.427"/>
      <stop offset="0.642" stop-color="#ea8034" stop-opacity="0.643"/>
      <stop offset="0.854" stop-color="#f47b18" stop-opacity="0.855"/>
      <stop offset="1" stop-color="#fe7701"/>
    </linearGradient>
    <linearGradient id="linear-gradient-4" x1="0.413" y1="0.034" x2="0.201" y2="-0.821" xlink:href="#linear-gradient-3"/>
    <linearGradient id="linear-gradient-5" x1="0.474" y1="0.127" x2="0.521" y2="0.936" gradientUnits="objectBoundingBox">
      <stop offset="0" stop-color="#eaf6ff"/>
      <stop offset="1" stop-color="#b3dafe"/>
    </linearGradient>
    <linearGradient id="linear-gradient-6" x1="0.478" y1="0.144" x2="0.554" y2="1.606" gradientUnits="objectBoundingBox">
      <stop offset="0" stop-color="#7bacdf" stop-opacity="0"/>
      <stop offset="1" stop-color="#7bacdf"/>
    </linearGradient>
    <linearGradient id="linear-gradient-10" x1="0.553" y1="0.493" x2="-0.02" y2="0.599" xlink:href="#linear-gradient-6"/>
    <linearGradient id="linear-gradient-11" x1="0.146" y1="0.098" x2="0.686" y2="0.76" gradientUnits="objectBoundingBox">
      <stop offset="0" stop-color="#eaf9fa"/>
      <stop offset="1" stop-color="#b3dafe"/>
    </linearGradient>
    <linearGradient id="linear-gradient-12" x1="0.107" y1="0.259" x2="0.568" y2="0.61" xlink:href="#linear-gradient-5"/>
    <linearGradient id="linear-gradient-13" y1="0.5" x2="1" y2="0.5" gradientUnits="objectBoundingBox">
      <stop offset="0" stop-color="#5a5a5a"/>
      <stop offset="1" stop-color="#444"/>
    </linearGradient>
    <linearGradient id="linear-gradient-14" x1="0.429" y1="0.172" x2="0.584" y2="0.888" xlink:href="#linear-gradient-13"/>
    <linearGradient id="linear-gradient-15" x1="0.689" y1="0.5" x2="0.987" y2="0.5" gradientUnits="objectBoundingBox">
      <stop offset="0" stop-color="#433f43" stop-opacity="0"/>
      <stop offset="1" stop-color="#1a1a1a"/>
    </linearGradient>
    <linearGradient id="linear-gradient-16" x1="0.5" y1="1.898" x2="0.5" y2="-0.245" xlink:href="#linear-gradient-15"/>
    <linearGradient id="linear-gradient-17" x1="0.5" y1="0.538" x2="0.5" y2="0.918" xlink:href="#linear-gradient-15"/>
    <linearGradient id="linear-gradient-18" x1="0.403" y1="0.273" x2="0.614" y2="0.768" xlink:href="#linear-gradient-13"/>
    <linearGradient id="linear-gradient-19" x1="0.952" y1="0.952" x2="-0.048" y2="-0.048" xlink:href="#linear-gradient-13"/>
    <linearGradient id="linear-gradient-20" x1="0.403" y1="0.273" x2="0.614" y2="0.768" xlink:href="#linear-gradient-13"/>
    <linearGradient id="linear-gradient-25" x1="0.952" y1="0.952" x2="-0.048" y2="-0.048" xlink:href="#linear-gradient-13"/>
    <linearGradient id="linear-gradient-32" x1="0.403" y1="0.273" x2="0.614" y2="0.768" xlink:href="#linear-gradient-13"/>
    <linearGradient id="linear-gradient-46" x1="0.445" y1="0.113" x2="0.565" y2="0.958" xlink:href="#linear-gradient-13"/>
    <linearGradient id="linear-gradient-47" x1="0.82" y1="1.745" x2="0.113" y2="-1.009" xlink:href="#linear-gradient-13"/>
    <linearGradient id="linear-gradient-57" x1="0.304" y1="0.364" x2="0.753" y2="0.675" xlink:href="#linear-gradient-13"/>
    <linearGradient id="linear-gradient-58" x1="0.49" x2="1.014" xlink:href="#linear-gradient-15"/>
    <linearGradient id="linear-gradient-59" x1="0.331" y1="0.237" x2="0.487" y2="0.792" xlink:href="#linear-gradient-13"/>
    <linearGradient id="linear-gradient-60" x1="0.078" y1="0.083" x2="0.542" y2="0.917" xlink:href="#linear-gradient-15"/>
  </defs>
  <g id="Group_2284" data-name="Group 2284" transform="translate(-1262 -1108)">
    <rect id="Rectangle_194" data-name="Rectangle 194" width="74" height="71" rx="11" transform="translate(1262 1108)" fill="#dfe9f1"/>
    <g id="online-course_2_" data-name="online-course (2)" transform="translate(1275 1120)">
      <g id="Group_2022" data-name="Group 2022" transform="translate(0 0)">
        <g id="Group_2020" data-name="Group 2020" transform="translate(0 0)">
          <path id="Path_3141" data-name="Path 3141" d="M463.411,39.853A34.193,34.193,0,0,0,460,38.871V61.5q1.249.29,2.49.678a1.708,1.708,0,0,0,2.215-1.632V41.658A1.912,1.912,0,0,0,463.411,39.853Z" transform="translate(-416.706 -35.213)" fill="url(#linear-gradient)"/>
          <g id="Group_2019" data-name="Group 2019">
            <path id="Path_3142" data-name="Path 3142" d="M24,32.205A32.387,32.387,0,0,0,1.3,31.73,1.912,1.912,0,0,0,0,33.536V52.42a1.708,1.708,0,0,0,2.215,1.632A32.157,32.157,0,0,1,20.6,53.7a12.847,12.847,0,0,0,6.8,0,32.157,32.157,0,0,1,18.384.349A1.708,1.708,0,0,0,48,52.42V33.536a1.912,1.912,0,0,0-1.3-1.806,32.387,32.387,0,0,0-22.7.475Z" transform="translate(0 -27.09)" fill="url(#linear-gradient-2)"/>
            <path id="Path_3143" data-name="Path 3143" d="M0,132.857v12.826a1.708,1.708,0,0,0,2.215,1.632,32.157,32.157,0,0,1,18.384-.349,12.846,12.846,0,0,0,6.8,0,32.157,32.157,0,0,1,18.384.349A1.708,1.708,0,0,0,48,145.683V132.857Z" transform="translate(0 -120.353)" fill="url(#linear-gradient-3)"/>
            <path id="Path_3144" data-name="Path 3144" d="M29.666,191.71v6.615l1.68,1.68a32.056,32.056,0,0,1,16.127.275,12.846,12.846,0,0,0,6.8,0,32.157,32.157,0,0,1,18.384.349A1.708,1.708,0,0,0,74.874,199V191.71Z" transform="translate(-26.874 -173.667)" fill="url(#linear-gradient-4)"/>
            <path id="Path_3145" data-name="Path 3145" d="M64.532,150.439a29.568,29.568,0,0,0-20.486.518,29.567,29.567,0,0,0-20.486-.518,2.091,2.091,0,0,0-1.431,1.98v5.754a1.609,1.609,0,0,0,2.09,1.534,29.425,29.425,0,0,1,18.143.129,5.516,5.516,0,0,0,3.414-.015,29.422,29.422,0,0,1,18.1-.115,1.609,1.609,0,0,0,2.09-1.534v-5.754A2.091,2.091,0,0,0,64.532,150.439Z" transform="translate(-20.045 -134.846)" fill="url(#linear-gradient-5)"/>
            <path id="Path_3146" data-name="Path 3146" d="M64.532,150.439a29.568,29.568,0,0,0-20.486.518,29.567,29.567,0,0,0-20.486-.518,2.091,2.091,0,0,0-1.431,1.98v5.754a1.609,1.609,0,0,0,2.09,1.534,29.425,29.425,0,0,1,18.143.129,5.516,5.516,0,0,0,3.414-.015,29.422,29.422,0,0,1,18.1-.115,1.609,1.609,0,0,0,2.09-1.534v-5.754A2.091,2.091,0,0,0,64.532,150.439Z" transform="translate(-20.045 -134.846)" fill="url(#linear-gradient-6)"/>
            <path id="Path_3147" data-name="Path 3147" d="M64.532,142.439a29.568,29.568,0,0,0-20.486.518,29.567,29.567,0,0,0-20.486-.518,2.091,2.091,0,0,0-1.431,1.98v5.754a1.609,1.609,0,0,0,2.09,1.534,29.425,29.425,0,0,1,18.143.129,5.516,5.516,0,0,0,3.414-.015,29.422,29.422,0,0,1,18.1-.115,1.609,1.609,0,0,0,2.09-1.534v-5.754A2.091,2.091,0,0,0,64.532,142.439Z" transform="translate(-20.045 -127.599)" fill="url(#linear-gradient-6)"/>
            <path id="Path_3148" data-name="Path 3148" d="M64.532,134.439a29.568,29.568,0,0,0-20.486.518,29.567,29.567,0,0,0-20.486-.518,2.091,2.091,0,0,0-1.431,1.98v5.754a1.609,1.609,0,0,0,2.09,1.534,29.425,29.425,0,0,1,18.143.129,5.515,5.515,0,0,0,3.414-.015,29.423,29.423,0,0,1,18.1-.115,1.609,1.609,0,0,0,2.09-1.534v-5.754A2.091,2.091,0,0,0,64.532,134.439Z" transform="translate(-20.045 -120.352)" fill="url(#linear-gradient-6)"/>
            <path id="Path_3149" data-name="Path 3149" d="M64.532,126.439a29.568,29.568,0,0,0-20.486.518,29.567,29.567,0,0,0-20.486-.518,2.091,2.091,0,0,0-1.431,1.98v5.754a1.609,1.609,0,0,0,2.09,1.534,29.425,29.425,0,0,1,18.143.129,5.515,5.515,0,0,0,3.414-.015,29.423,29.423,0,0,1,18.1-.115,1.609,1.609,0,0,0,2.09-1.534v-5.754A2.091,2.091,0,0,0,64.532,126.439Z" transform="translate(-20.045 -113.105)" fill="url(#linear-gradient-6)"/>
            <path id="Path_3150" data-name="Path 3150" d="M256.729,159.83a29.792,29.792,0,0,1,9.229-1.483v-9.481h0l-9.311,1.513q-.823.27-1.643.586v9.142A5.654,5.654,0,0,0,256.729,159.83Z" transform="translate(-230.999 -134.855)" fill="url(#linear-gradient-10)"/>
            <path id="Path_3151" data-name="Path 3151" d="M64.532,1.583A29.568,29.568,0,0,0,44.045,2.1a29.568,29.568,0,0,0-20.486-.518,2.091,2.091,0,0,0-1.431,1.98V19.687a1.609,1.609,0,0,0,2.09,1.534,29.425,29.425,0,0,1,18.143.129,5.516,5.516,0,0,0,3.414-.015,29.423,29.423,0,0,1,18.1-.115,1.609,1.609,0,0,0,2.09-1.534V3.562a2.091,2.091,0,0,0-1.431-1.98Z" transform="translate(-20.045 0)" fill="url(#linear-gradient-11)"/>
            <g id="Group_2018" data-name="Group 2018" transform="translate(4.215 6.35)">
              <g id="Group_2015" data-name="Group 2015">
                <g id="Group_2014" data-name="Group 2014">
                  <path id="Path_3152" data-name="Path 3152" d="M94.966,67.553a64.291,64.291,0,0,0-8.664.131.952.952,0,0,0-.837.928.742.742,0,0,0,.837.75,64.3,64.3,0,0,1,8.664-.131.772.772,0,0,0,.845-.776A.92.92,0,0,0,94.966,67.553Z" transform="translate(-81.637 -67.465)" fill="#7bacdf"/>
                  <path id="Path_3153" data-name="Path 3153" d="M46.559,73.582c-.377.058-.566.09-.942.155a1.042,1.042,0,0,0-.829.99.677.677,0,0,0,.828.688c.376-.065.564-.1.942-.155a1.006,1.006,0,0,0,.833-.961A.7.7,0,0,0,46.559,73.582Z" transform="translate(-44.789 -72.998)" fill="#7bacdf"/>
                </g>
              </g>
              <g id="Group_2017" data-name="Group 2017" transform="translate(0 3.608)">
                <g id="Group_2016" data-name="Group 2016">
                  <path id="Path_3154" data-name="Path 3154" d="M45.619,110.5c1.246-.222,2.516-.4,3.781-.515a.941.941,0,0,0,.839-.915.752.752,0,0,0-.839-.763c-1.265.12-2.535.293-3.781.515a1.042,1.042,0,0,0-.828.99A.677.677,0,0,0,45.619,110.5Z" transform="translate(-44.791 -108.064)" fill="#7bacdf"/>
                  <path id="Path_3155" data-name="Path 3155" d="M116.617,107.513c.382-.016.573-.023.955-.032a.861.861,0,0,0,.843-.853.822.822,0,0,0-.844-.825c-.382.01-.573.016-.955.032a.892.892,0,0,0-.842.882A.793.793,0,0,0,116.617,107.513Z" transform="translate(-109.094 -105.802)" fill="#7bacdf"/>
                  <path id="Path_3156" data-name="Path 3156" d="M94.966,151.55a64.29,64.29,0,0,0-8.664.131.952.952,0,0,0-.837.928.742.742,0,0,0,.837.75,64.3,64.3,0,0,1,8.664-.131.772.772,0,0,0,.845-.776A.92.92,0,0,0,94.966,151.55Z" transform="translate(-81.637 -147.165)" fill="#7bacdf"/>
                  <path id="Path_3157" data-name="Path 3157" d="M46.559,157.58c-.377.058-.566.09-.942.155a1.042,1.042,0,0,0-.829.99.677.677,0,0,0,.828.688c.376-.065.564-.1.942-.155a1.006,1.006,0,0,0,.833-.961A.7.7,0,0,0,46.559,157.58Z" transform="translate(-44.789 -152.698)" fill="#7bacdf"/>
                </g>
              </g>
            </g>
            <path id="Path_3158" data-name="Path 3158" d="M256.73,21.335a29.422,29.422,0,0,1,18.1-.115,1.609,1.609,0,0,0,2.09-1.534V3.562a2.091,2.091,0,0,0-1.431-1.98A29.568,29.568,0,0,0,255,2.1V21.613A5.653,5.653,0,0,0,256.73,21.335Z" transform="translate(-231 0)" fill="url(#linear-gradient-12)"/>
          </g>
        </g>
        <g id="Group_2021" data-name="Group 2021" transform="translate(26.142 12.137)">
          <path id="Path_3159" data-name="Path 3159" d="M278.586,133.453c1.246-.216,2.516-.384,3.781-.5a.936.936,0,0,0,.839-.912.756.756,0,0,0-.839-.766c-1.265.115-2.535.282-3.781.5a1.036,1.036,0,0,0-.828.987A.68.68,0,0,0,278.586,133.453Z" transform="translate(-277.758 -131.054)" fill="#7bacdf"/>
          <path id="Path_3160" data-name="Path 3160" d="M349.585,130.658c.382-.015.573-.02.955-.028a.856.856,0,0,0,.844-.85.827.827,0,0,0-.844-.829c-.382.008-.573.013-.955.028a.887.887,0,0,0-.842.878A.8.8,0,0,0,349.585,130.658Z" transform="translate(-342.062 -128.951)" fill="#7bacdf"/>
          <path id="Path_3161" data-name="Path 3161" d="M327.934,174.775a64.278,64.278,0,0,0-8.664.093.947.947,0,0,0-.837.924.745.745,0,0,0,.837.754,64.3,64.3,0,0,1,8.664-.093.769.769,0,0,0,.845-.772A.925.925,0,0,0,327.934,174.775Z" transform="translate(-314.605 -170.369)" fill="#7bacdf"/>
          <path id="Path_3162" data-name="Path 3162" d="M279.527,180.425c-.377.057-.566.087-.942.151a1.036,1.036,0,0,0-.829.987.68.68,0,0,0,.828.691c.376-.064.564-.094.942-.151a1,1,0,0,0,.833-.958A.707.707,0,0,0,279.527,180.425Z" transform="translate(-277.757 -175.572)" fill="#7bacdf"/>
        </g>
      </g>
      <path id="Path_3163" data-name="Path 3163" d="M116.354,258.591v.532h-1.412v-.532a2.559,2.559,0,0,0-2.557-2.556h-7.247a3.973,3.973,0,0,1-3.968-3.969v-1.518q.706-.086,1.412-.137v1.656a2.559,2.559,0,0,0,2.556,2.557h7.247A3.973,3.973,0,0,1,116.354,258.591Z" transform="translate(-91.648 -226.842)" fill="url(#linear-gradient-13)"/>
      <g id="Group_2046" data-name="Group 2046" transform="translate(0 30.871)">
        <path id="Path_3164" data-name="Path 3164" d="M32.094,345.129H1.882A1.882,1.882,0,0,1,0,343.247V329.882A1.882,1.882,0,0,1,1.882,328H32.094a1.882,1.882,0,0,1,1.882,1.882v13.365A1.882,1.882,0,0,1,32.094,345.129Z" transform="translate(0 -328)" fill="url(#linear-gradient-14)"/>
        <path id="Path_3165" data-name="Path 3165" d="M257.508,328h-8.675v17.129h8.675a1.882,1.882,0,0,0,1.882-1.882V329.882A1.882,1.882,0,0,0,257.508,328Z" transform="translate(-225.413 -328)" fill="url(#linear-gradient-15)"/>
        <path id="Path_3166" data-name="Path 3166" d="M16.718,357.306A1.718,1.718,0,0,1,15,355.588V344.718A1.718,1.718,0,0,1,16.718,343H44.435a1.718,1.718,0,0,1,1.718,1.718v10.871a1.718,1.718,0,0,1-1.718,1.718Z" transform="translate(-13.588 -341.588)" fill="url(#linear-gradient-16)"/>
        <path id="Path_3167" data-name="Path 3167" d="M0,414.667v7.09a1.882,1.882,0,0,0,1.882,1.882H32.094a1.882,1.882,0,0,0,1.882-1.882v-7.09Z" transform="translate(0 -406.51)" fill="url(#linear-gradient-17)"/>
        <g id="Group_2045" data-name="Group 2045" transform="translate(2.086 2.259)">
          <g id="Group_2030" data-name="Group 2030">
            <g id="Group_2023" data-name="Group 2023" transform="translate(0 0)">
              <path id="Path_3168" data-name="Path 3168" d="M25.116,356.2H23.422a1.255,1.255,0,0,1-1.255-1.255v-1.694A1.255,1.255,0,0,1,23.422,352h1.694a1.255,1.255,0,0,1,1.255,1.255v1.694A1.255,1.255,0,0,1,25.116,356.2Z" transform="translate(-22.167 -352.001)" fill="url(#linear-gradient-18)"/>
              <path id="Path_3169" data-name="Path 3169" d="M30.9,356.949H29.714a.88.88,0,0,1-.88-.88V354.88a.88.88,0,0,1,.88-.88H30.9a.88.88,0,0,1,.88.88v1.188A.88.88,0,0,1,30.9,356.949Z" transform="translate(-28.207 -353.812)" fill="url(#linear-gradient-19)"/>
            </g>
            <g id="Group_2024" data-name="Group 2024" transform="translate(4.267)">
              <path id="Path_3170" data-name="Path 3170" d="M70.449,356.2H68.755a1.255,1.255,0,0,1-1.255-1.255v-1.694A1.255,1.255,0,0,1,68.755,352h1.694a1.255,1.255,0,0,1,1.255,1.255v1.694A1.255,1.255,0,0,1,70.449,356.2Z" transform="translate(-67.5 -352)" fill="url(#linear-gradient-20)"/>
              <path id="Path_3171" data-name="Path 3171" d="M76.236,356.949H75.047a.88.88,0,0,1-.88-.88V354.88a.88.88,0,0,1,.88-.88h1.188a.88.88,0,0,1,.88.88v1.188A.88.88,0,0,1,76.236,356.949Z" transform="translate(-73.54 -353.812)" fill="url(#linear-gradient-19)"/>
            </g>
            <g id="Group_2025" data-name="Group 2025" transform="translate(8.533 0)">
              <path id="Path_3172" data-name="Path 3172" d="M115.783,356.2h-1.694a1.255,1.255,0,0,1-1.255-1.255v-1.694A1.255,1.255,0,0,1,114.089,352h1.694a1.255,1.255,0,0,1,1.255,1.255v1.694a1.255,1.255,0,0,1-1.255,1.255Z" transform="translate(-112.834 -352.001)" fill="url(#linear-gradient-18)"/>
              <path id="Path_3173" data-name="Path 3173" d="M121.569,356.949H120.38a.88.88,0,0,1-.88-.88V354.88a.88.88,0,0,1,.88-.88h1.188a.88.88,0,0,1,.88.88v1.188A.88.88,0,0,1,121.569,356.949Z" transform="translate(-118.873 -353.812)" fill="url(#linear-gradient-19)"/>
            </g>
            <g id="Group_2026" data-name="Group 2026" transform="translate(12.8 0)">
              <path id="Path_3174" data-name="Path 3174" d="M161.116,356.2h-1.694a1.255,1.255,0,0,1-1.255-1.255v-1.694A1.255,1.255,0,0,1,159.422,352h1.694a1.255,1.255,0,0,1,1.255,1.255v1.694A1.255,1.255,0,0,1,161.116,356.2Z" transform="translate(-158.167 -352.001)" fill="url(#linear-gradient-18)"/>
              <path id="Path_3175" data-name="Path 3175" d="M166.9,356.949h-1.188a.88.88,0,0,1-.88-.88V354.88a.88.88,0,0,1,.88-.88H166.9a.88.88,0,0,1,.88.88v1.188A.88.88,0,0,1,166.9,356.949Z" transform="translate(-164.206 -353.812)" fill="url(#linear-gradient-25)"/>
            </g>
            <g id="Group_2027" data-name="Group 2027" transform="translate(17.067 0)">
              <path id="Path_3176" data-name="Path 3176" d="M206.449,356.2h-1.694a1.255,1.255,0,0,1-1.255-1.255v-1.694A1.255,1.255,0,0,1,204.755,352h1.694a1.255,1.255,0,0,1,1.255,1.255v1.694A1.255,1.255,0,0,1,206.449,356.2Z" transform="translate(-203.5 -352.001)" fill="url(#linear-gradient-18)"/>
              <path id="Path_3177" data-name="Path 3177" d="M212.236,356.949h-1.188a.88.88,0,0,1-.88-.88V354.88a.88.88,0,0,1,.88-.88h1.188a.88.88,0,0,1,.88.88v1.188A.88.88,0,0,1,212.236,356.949Z" transform="translate(-209.54 -353.812)" fill="url(#linear-gradient-19)"/>
            </g>
            <g id="Group_2028" data-name="Group 2028" transform="translate(21.333 0)">
              <path id="Path_3178" data-name="Path 3178" d="M251.783,356.2h-1.694a1.255,1.255,0,0,1-1.255-1.255v-1.694A1.255,1.255,0,0,1,250.089,352h1.694a1.255,1.255,0,0,1,1.255,1.255v1.694A1.255,1.255,0,0,1,251.783,356.2Z" transform="translate(-248.834 -352.001)" fill="url(#linear-gradient-18)"/>
              <path id="Path_3179" data-name="Path 3179" d="M257.569,356.949H256.38a.88.88,0,0,1-.88-.88V354.88a.88.88,0,0,1,.88-.88h1.188a.88.88,0,0,1,.88.88v1.188A.88.88,0,0,1,257.569,356.949Z" transform="translate(-254.873 -353.812)" fill="url(#linear-gradient-19)"/>
            </g>
            <g id="Group_2029" data-name="Group 2029" transform="translate(25.6 0)">
              <path id="Path_3180" data-name="Path 3180" d="M297.116,356.2h-1.694a1.255,1.255,0,0,1-1.255-1.255v-1.694A1.255,1.255,0,0,1,295.422,352h1.694a1.255,1.255,0,0,1,1.255,1.255v1.694A1.255,1.255,0,0,1,297.116,356.2Z" transform="translate(-294.167 -352.001)" fill="url(#linear-gradient-18)"/>
              <path id="Path_3181" data-name="Path 3181" d="M302.9,356.949h-1.188a.88.88,0,0,1-.88-.88V354.88a.88.88,0,0,1,.88-.88H302.9a.88.88,0,0,1,.88.88v1.188A.88.88,0,0,1,302.9,356.949Z" transform="translate(-300.206 -353.812)" fill="url(#linear-gradient-25)"/>
            </g>
          </g>
          <g id="Group_2038" data-name="Group 2038" transform="translate(0 4.204)">
            <g id="Group_2031" data-name="Group 2031">
              <path id="Path_3182" data-name="Path 3182" d="M25.116,400.871H23.422a1.255,1.255,0,0,1-1.255-1.255v-1.694a1.255,1.255,0,0,1,1.255-1.255h1.694a1.255,1.255,0,0,1,1.255,1.255v1.694A1.255,1.255,0,0,1,25.116,400.871Z" transform="translate(-22.167 -396.667)" fill="url(#linear-gradient-32)"/>
              <path id="Path_3183" data-name="Path 3183" d="M30.9,401.616H29.714a.88.88,0,0,1-.88-.88v-1.188a.88.88,0,0,1,.88-.88H30.9a.88.88,0,0,1,.88.88v1.188A.88.88,0,0,1,30.9,401.616Z" transform="translate(-28.207 -398.479)" fill="url(#linear-gradient-19)"/>
            </g>
            <g id="Group_2032" data-name="Group 2032" transform="translate(4.267)">
              <path id="Path_3184" data-name="Path 3184" d="M70.449,400.871H68.755a1.255,1.255,0,0,1-1.255-1.255v-1.694a1.255,1.255,0,0,1,1.255-1.255h1.694a1.255,1.255,0,0,1,1.255,1.255v1.694A1.255,1.255,0,0,1,70.449,400.871Z" transform="translate(-67.5 -396.667)" fill="url(#linear-gradient-32)"/>
              <path id="Path_3185" data-name="Path 3185" d="M76.236,401.616H75.047a.88.88,0,0,1-.88-.88v-1.188a.88.88,0,0,1,.88-.88h1.188a.88.88,0,0,1,.88.88v1.188A.88.88,0,0,1,76.236,401.616Z" transform="translate(-73.54 -398.479)" fill="url(#linear-gradient-19)"/>
            </g>
            <g id="Group_2033" data-name="Group 2033" transform="translate(8.533)">
              <path id="Path_3186" data-name="Path 3186" d="M115.783,400.871h-1.694a1.255,1.255,0,0,1-1.255-1.255v-1.694a1.255,1.255,0,0,1,1.255-1.255h1.694a1.255,1.255,0,0,1,1.255,1.255v1.694a1.255,1.255,0,0,1-1.255,1.255Z" transform="translate(-112.834 -396.667)" fill="url(#linear-gradient-32)"/>
              <path id="Path_3187" data-name="Path 3187" d="M121.569,401.616H120.38a.88.88,0,0,1-.88-.88v-1.188a.88.88,0,0,1,.88-.88h1.188a.88.88,0,0,1,.88.88v1.188A.88.88,0,0,1,121.569,401.616Z" transform="translate(-118.873 -398.479)" fill="url(#linear-gradient-19)"/>
            </g>
            <g id="Group_2034" data-name="Group 2034" transform="translate(12.8)">
              <path id="Path_3188" data-name="Path 3188" d="M161.116,400.871h-1.694a1.255,1.255,0,0,1-1.255-1.255v-1.694a1.255,1.255,0,0,1,1.255-1.255h1.694a1.255,1.255,0,0,1,1.255,1.255v1.694A1.255,1.255,0,0,1,161.116,400.871Z" transform="translate(-158.167 -396.667)" fill="url(#linear-gradient-32)"/>
              <path id="Path_3189" data-name="Path 3189" d="M166.9,401.616h-1.188a.88.88,0,0,1-.88-.88v-1.188a.88.88,0,0,1,.88-.88H166.9a.88.88,0,0,1,.88.88v1.188A.88.88,0,0,1,166.9,401.616Z" transform="translate(-164.206 -398.479)" fill="url(#linear-gradient-25)"/>
            </g>
            <g id="Group_2035" data-name="Group 2035" transform="translate(17.067)">
              <path id="Path_3190" data-name="Path 3190" d="M206.449,400.871h-1.694a1.255,1.255,0,0,1-1.255-1.255v-1.694a1.255,1.255,0,0,1,1.255-1.255h1.694a1.255,1.255,0,0,1,1.255,1.255v1.694A1.255,1.255,0,0,1,206.449,400.871Z" transform="translate(-203.5 -396.667)" fill="url(#linear-gradient-32)"/>
              <path id="Path_3191" data-name="Path 3191" d="M212.236,401.616h-1.188a.88.88,0,0,1-.88-.88v-1.188a.88.88,0,0,1,.88-.88h1.188a.88.88,0,0,1,.88.88v1.188A.88.88,0,0,1,212.236,401.616Z" transform="translate(-209.54 -398.479)" fill="url(#linear-gradient-19)"/>
            </g>
            <g id="Group_2036" data-name="Group 2036" transform="translate(21.333)">
              <path id="Path_3192" data-name="Path 3192" d="M251.783,400.871h-1.694a1.255,1.255,0,0,1-1.255-1.255v-1.694a1.255,1.255,0,0,1,1.255-1.255h1.694a1.255,1.255,0,0,1,1.255,1.255v1.694A1.255,1.255,0,0,1,251.783,400.871Z" transform="translate(-248.834 -396.667)" fill="url(#linear-gradient-32)"/>
              <path id="Path_3193" data-name="Path 3193" d="M257.569,401.616H256.38a.88.88,0,0,1-.88-.88v-1.188a.88.88,0,0,1,.88-.88h1.188a.88.88,0,0,1,.88.88v1.188A.88.88,0,0,1,257.569,401.616Z" transform="translate(-254.873 -398.479)" fill="url(#linear-gradient-19)"/>
            </g>
            <g id="Group_2037" data-name="Group 2037" transform="translate(25.6)">
              <path id="Path_3194" data-name="Path 3194" d="M297.116,400.871h-1.694a1.255,1.255,0,0,1-1.255-1.255v-1.694a1.255,1.255,0,0,1,1.255-1.255h1.694a1.255,1.255,0,0,1,1.255,1.255v1.694A1.255,1.255,0,0,1,297.116,400.871Z" transform="translate(-294.167 -396.667)" fill="url(#linear-gradient-32)"/>
              <path id="Path_3195" data-name="Path 3195" d="M302.9,401.616h-1.188a.88.88,0,0,1-.88-.88v-1.188a.88.88,0,0,1,.88-.88H302.9a.88.88,0,0,1,.88.88v1.188A.88.88,0,0,1,302.9,401.616Z" transform="translate(-300.206 -398.479)" fill="url(#linear-gradient-25)"/>
            </g>
          </g>
          <g id="Group_2039" data-name="Group 2039" transform="translate(8.533 8.408)">
            <path id="Path_3196" data-name="Path 3196" d="M124.316,445.538a1.255,1.255,0,0,0,1.255-1.255v-1.694a1.255,1.255,0,0,0-1.255-1.255H114.089a1.255,1.255,0,0,0-1.255,1.255v1.694a1.255,1.255,0,0,0,1.255,1.255Z" transform="translate(-112.834 -441.334)" fill="url(#linear-gradient-46)"/>
            <path id="Path_3197" data-name="Path 3197" d="M130.1,446.283a.88.88,0,0,0,.88-.88v-1.188a.88.88,0,0,0-.88-.88H120.38a.88.88,0,0,0-.88.88V445.4a.88.88,0,0,0,.88.88Z" transform="translate(-118.873 -443.146)" fill="url(#linear-gradient-47)"/>
          </g>
          <g id="Group_2044" data-name="Group 2044" transform="translate(0 8.408)">
            <g id="Group_2040" data-name="Group 2040">
              <path id="Path_3198" data-name="Path 3198" d="M25.116,445.538H23.422a1.255,1.255,0,0,1-1.255-1.255v-1.694a1.255,1.255,0,0,1,1.255-1.255h1.694a1.255,1.255,0,0,1,1.255,1.255v1.694A1.255,1.255,0,0,1,25.116,445.538Z" transform="translate(-22.167 -441.334)" fill="url(#linear-gradient-32)"/>
              <path id="Path_3199" data-name="Path 3199" d="M30.9,446.283H29.714a.88.88,0,0,1-.88-.88v-1.188a.88.88,0,0,1,.88-.88H30.9a.88.88,0,0,1,.88.88V445.4A.88.88,0,0,1,30.9,446.283Z" transform="translate(-28.207 -443.146)" fill="url(#linear-gradient-19)"/>
            </g>
            <g id="Group_2041" data-name="Group 2041" transform="translate(4.267)">
              <path id="Path_3200" data-name="Path 3200" d="M70.449,445.538H68.755a1.255,1.255,0,0,1-1.255-1.255v-1.694a1.255,1.255,0,0,1,1.255-1.255h1.694a1.255,1.255,0,0,1,1.255,1.255v1.694A1.255,1.255,0,0,1,70.449,445.538Z" transform="translate(-67.5 -441.334)" fill="url(#linear-gradient-32)"/>
              <path id="Path_3201" data-name="Path 3201" d="M76.236,446.283H75.047a.88.88,0,0,1-.88-.88v-1.188a.88.88,0,0,1,.88-.88h1.188a.88.88,0,0,1,.88.88V445.4A.88.88,0,0,1,76.236,446.283Z" transform="translate(-73.54 -443.146)" fill="url(#linear-gradient-19)"/>
            </g>
            <g id="Group_2042" data-name="Group 2042" transform="translate(21.333)">
              <path id="Path_3202" data-name="Path 3202" d="M251.783,445.538h-1.694a1.255,1.255,0,0,1-1.255-1.255v-1.694a1.255,1.255,0,0,1,1.255-1.255h1.694a1.255,1.255,0,0,1,1.255,1.255v1.694A1.255,1.255,0,0,1,251.783,445.538Z" transform="translate(-248.834 -441.334)" fill="url(#linear-gradient-32)"/>
              <path id="Path_3203" data-name="Path 3203" d="M257.569,446.283H256.38a.88.88,0,0,1-.88-.88v-1.188a.88.88,0,0,1,.88-.88h1.188a.88.88,0,0,1,.88.88V445.4A.88.88,0,0,1,257.569,446.283Z" transform="translate(-254.873 -443.146)" fill="url(#linear-gradient-19)"/>
            </g>
            <g id="Group_2043" data-name="Group 2043" transform="translate(25.6)">
              <path id="Path_3204" data-name="Path 3204" d="M297.116,445.538h-1.694a1.255,1.255,0,0,1-1.255-1.255v-1.694a1.255,1.255,0,0,1,1.255-1.255h1.694a1.255,1.255,0,0,1,1.255,1.255v1.694A1.255,1.255,0,0,1,297.116,445.538Z" transform="translate(-294.167 -441.334)" fill="url(#linear-gradient-32)"/>
              <path id="Path_3205" data-name="Path 3205" d="M302.9,446.283h-1.188a.88.88,0,0,1-.88-.88v-1.188a.88.88,0,0,1,.88-.88H302.9a.88.88,0,0,1,.88.88V445.4A.88.88,0,0,1,302.9,446.283Z" transform="translate(-300.206 -443.146)" fill="url(#linear-gradient-25)"/>
            </g>
          </g>
        </g>
      </g>
      <path id="Path_3206" data-name="Path 3206" d="M391.264,258.386v5.067h-1.412v-5.067a2.638,2.638,0,0,0-2.635-2.635,4.052,4.052,0,0,1-4.047-4.047V249.82c.471.017.941.047,1.412.088v1.8a2.638,2.638,0,0,0,2.635,2.635A4.052,4.052,0,0,1,391.264,258.386Z" transform="translate(-347.107 -226.308)" fill="url(#linear-gradient-13)"/>
      <g id="Group_2047" data-name="Group 2047" transform="translate(38.777 34.855)">
        <path id="Path_3207" data-name="Path 3207" d="M416.675,382.318h-.125A4.549,4.549,0,0,1,412,377.769v-2.886a4.549,4.549,0,0,1,4.549-4.549h.125a4.549,4.549,0,0,1,4.549,4.549v2.886A4.549,4.549,0,0,1,416.675,382.318Z" transform="translate(-412.001 -370.334)" fill="url(#linear-gradient-57)"/>
        <path id="Path_3208" data-name="Path 3208" d="M461.063,370.333H461v11.984h.063a4.549,4.549,0,0,0,4.549-4.549v-2.886A4.549,4.549,0,0,0,461.063,370.333Z" transform="translate(-456.388 -370.333)" fill="url(#linear-gradient-58)"/>
        <path id="Path_3209" data-name="Path 3209" d="M416.675,370.333h-.125A4.549,4.549,0,0,0,412,374.882v.533h9.224v-.533A4.549,4.549,0,0,0,416.675,370.333Z" transform="translate(-412.001 -370.333)" fill="url(#linear-gradient-59)"/>
        <path id="Path_3210" data-name="Path 3210" d="M461.063,370.333H461v5.082h4.612v-.533A4.549,4.549,0,0,0,461.063,370.333Z" transform="translate(-456.388 -370.333)" fill="url(#linear-gradient-60)"/>
      </g>
    </g>
  </g>
</svg>
