<svg xmlns="http://www.w3.org/2000/svg" width="60.453" height="68.762" viewBox="0 0 60.453 68.762">
  <g id="Group_2278" data-name="Group 2278" transform="translate(-480.547 -274.738)">
    <path id="Path_2591" data-name="Path 2591" d="M0,0V.851a2.768,2.768,0,0,0,.142.993A6.242,6.242,0,0,0,.425,3.261,15.508,15.508,0,0,0,1.7,6.806,22.679,22.679,0,0,0,4.4,10.919a13.765,13.765,0,0,0,4.821,3.545c.284.142.425.142.709.284s.567.142.851.284l.425.142a.521.521,0,0,1,.425.142c.284,0,.567.142.851.142a5.815,5.815,0,0,0,3.4-.851,5.093,5.093,0,0,0,2.127-2.978,6.537,6.537,0,0,0-.142-3.687A6.023,6.023,0,0,0,15.6,4.963a4.792,4.792,0,0,0-1.7-.851,5.913,5.913,0,0,1-.851-.284c-.284,0-.709-.142-.993-.142a3.256,3.256,0,0,0-1.985.567A4.507,4.507,0,0,0,8.65,5.672a4.792,4.792,0,0,0-.851,1.7c-.142.567-.284,1.276-.425,1.843a8.085,8.085,0,0,0-.142,1.843A8.3,8.3,0,0,0,7.516,12.9a8.7,8.7,0,0,0,1.56,3.261c.425.425.709.993,1.134,1.418.142.284.425.425.567.567l.567.567a7.794,7.794,0,0,0,1.276.993c.425.284.993.567,1.418.851a24.5,24.5,0,0,0,5.53,2.127,22.18,22.18,0,0,0,4.963.567,26.52,26.52,0,0,0,3.829-.284c.567-.142.993-.142,1.418-.284a9.034,9.034,0,0,0,.993-.284,4.572,4.572,0,0,0,.851-.284v-.142H31.48a3.968,3.968,0,0,0-.851.142c-.284,0-.567.142-.993.142s-.851.142-1.418.142H24.532a34.692,34.692,0,0,1-4.821-.851,16.837,16.837,0,0,1-5.247-2.269l-1.276-.851a7.792,7.792,0,0,1-1.276-.993l-.567-.567-.567-.567a7.792,7.792,0,0,1-.993-1.276,7.714,7.714,0,0,1-1.56-6.1,7.356,7.356,0,0,1,.993-3.12,4.316,4.316,0,0,1,1.134-1.134,2.736,2.736,0,0,1,1.418-.425h.851c.284,0,.567.142.851.142a7.6,7.6,0,0,1,1.56.709,5.049,5.049,0,0,1,1.985,2.552,5.1,5.1,0,0,1,.142,3.261,4.563,4.563,0,0,1-1.7,2.552,5.581,5.581,0,0,1-2.978.851,1.063,1.063,0,0,1-.709-.142h-.425l-.425-.142a6.142,6.142,0,0,1-.709-.142c-.284-.142-.425-.142-.709-.284a13.877,13.877,0,0,1-4.68-3.261,17.237,17.237,0,0,1-2.836-3.97A16.716,16.716,0,0,1,.567,2.836,6.24,6.24,0,0,1,.284,1.418C.284.993.142.709.142.425.142.284.142,0,0,0H0Z" transform="matrix(0.996, 0.087, -0.087, 0.996, 509.498, 317.577)" fill="#404040"/>
    <path id="Path_2592" data-name="Path 2592" d="M27.043,34.316c.284-.709.567-1.276.851-1.985.993-2.411,1.985-4.821,3.12-7.09.851-1.985,1.7-3.829,2.552-5.814.425-1.276.993-2.552,1.276-3.829a13.414,13.414,0,0,0,.142-5.814,17.146,17.146,0,0,0-.709-2.552c-.284-.709-.567-1.418-.851-1.985A9.214,9.214,0,0,0,25.767,0a13.985,13.985,0,0,0-3.4.425,8.713,8.713,0,0,0-4.254,2.836,10.89,10.89,0,0,0-1.985,3.545,14.833,14.833,0,0,0-.567,2.411v.142h-.142a9.345,9.345,0,0,0-3.4-1.56,10.37,10.37,0,0,0-5.1,0,10.977,10.977,0,0,0-2.269.993,9.776,9.776,0,0,0-3.261,3.12A9.433,9.433,0,0,0,.1,18.434a8.278,8.278,0,0,0,1.134,3.12,14.17,14.17,0,0,0,1.134,1.985,11.871,11.871,0,0,0,4.538,4.254,22.618,22.618,0,0,0,3.829,1.7c1.7.567,3.4,1.134,5.1,1.56,3.261.851,6.381,1.843,9.643,2.836a4.3,4.3,0,0,1,1.56.425c-.142-.142-.142,0,0,0Z" transform="matrix(0.996, 0.087, -0.087, 0.996, 483.538, 274.738)" fill="#df5d5d"/>
  </g>
</svg>
