<svg xmlns="http://www.w3.org/2000/svg" width="32" height="32" viewBox="0 0 32 32">
  <g id="Group_1994" data-name="Group 1994" transform="translate(-552 -1107)">
    <rect id="Rectangle_183" data-name="Rectangle 183" width="32" height="32" rx="10" transform="translate(552 1107)" fill="#e9f0ff"/>
    <g id="mailbox_1_" data-name="mailbox (1)" transform="translate(558 1112.65)">
      <path id="Path_3038" data-name="Path 3038" d="M129.182,284.986v4.505H124.67v-7.857Z" transform="translate(-119.288 -269.143)" fill="#52528c"/>
      <path id="Path_3039" data-name="Path 3039" d="M194.8,333.737v4.505H193.25v-5.658Z" transform="translate(-184.907 -317.893)" fill="#404077"/>
      <path id="Path_3040" data-name="Path 3040" d="M14.975,33.915,4.6,31.52S-.408,32.652.027,40.663l10.622,6.259Z" transform="translate(0 -29.826)" fill="#accdff"/>
      <path id="Path_3041" data-name="Path 3041" d="M253.67,95.824V91.7s.261-5.262-3.222-4.942c-3.526.323-3.773,7.826-3.773,7.826v5.178Z" transform="translate(-236.026 -82.67)" fill="#81b0fe"/>
      <path id="Path_3042" data-name="Path 3042" d="M269.128,122.12v3.259l-5.519,3.088c-.006-1.493-.014-3.5-.017-4.066a15.384,15.384,0,0,1,.448-3.007c.369-1.4,1.093-3.054,2.538-3.187,1.733-.159,2.295,1.429,2.473,2.629A7.279,7.279,0,0,1,269.128,122.12Z" transform="translate(-252.213 -112.761)" fill="#6396ff"/>
      <path id="Path_3043" data-name="Path 3043" d="M55.568.707v9.708c-.521.564-1.244,0-1.244,0V3.471L51.049,2.456a.358.358,0,0,1-.012-.679L55.093.369a.358.358,0,0,1,.475.338Z" transform="translate(-48.604 0)" fill="#52528c"/>
      <path id="Path_3044" data-name="Path 3044" d="M54.324,6.994V9.829L51.049,8.815a.358.358,0,0,1-.012-.679Z" transform="translate(-48.604 -6.358)" fill="#404077"/>
      <path id="Path_3045" data-name="Path 3045" d="M272.184,158.427l-1.579,4.712a1.108,1.108,0,0,1-1.345.717c-1.373-.375,3.107.854-5.66-1.556-.009-2.139-.006-1.585-.01-2.46a15.411,15.411,0,0,1,.448-3.007,7.989,7.989,0,0,1,.59-1.6,1.618,1.618,0,0,1,.279.031c1.291.314,4.739,1.154,5.588,1.364a3.543,3.543,0,0,1,1.214.525,1.815,1.815,0,0,1,.334.3.635.635,0,0,1,.04.052A1.106,1.106,0,0,1,272.184,158.427Z" transform="translate(-252.211 -148.199)" fill="#ffd5b8"/>
      <path id="Path_3046" data-name="Path 3046" d="M289.017,157.452l-.57.326-7.117-1.936a6.16,6.16,0,0,1,.272-.608,1.616,1.616,0,0,1,.279.032c1.291.314,4.739,1.154,5.588,1.364a3.542,3.542,0,0,1,1.214.525A1.813,1.813,0,0,1,289.017,157.452Z" transform="translate(-269.185 -148.199)" fill="#ffc7a1"/>
      <path id="Path_3047" data-name="Path 3047" d="M272.184,193.868l-1.579,4.712a1.108,1.108,0,0,1-1.345.717c-1.373-.375,3.107.854-5.66-1.556-.009-2.139-.006-1.585-.01-2.46a15.411,15.411,0,0,1,.448-3.007l1.836,2.711a1.109,1.109,0,0,0,1.429.363l3.8-2.011a1.112,1.112,0,0,1,.85-.078l.277.087h0A1.105,1.105,0,0,1,272.184,193.868Z" transform="translate(-252.211 -183.64)" fill="#ffebd4"/>
      <path id="Path_3048" data-name="Path 3048" d="M268.924,248.488l-5.262-1.446-.007-1.8c2.044-1.511,1.908-1.411,1.951-1.439l.33.487a1.109,1.109,0,0,0,1.429.362Z" transform="translate(-252.273 -232.941)" fill="#ffd5b8"/>
      <path id="Path_3049" data-name="Path 3049" d="M446.955,200.465a1.549,1.549,0,0,0-.755-.127l.236-.624a1.53,1.53,0,0,1,.374.35A1.1,1.1,0,0,1,446.955,200.465Z" transform="translate(-426.938 -190.759)" fill="#ffc7a1"/>
      <path id="Path_3050" data-name="Path 3050" d="M396.228,214.574l-1.579,4.712A1.108,1.108,0,0,1,393.3,220l-.074-.02,2.287-6.057a1.548,1.548,0,0,1,.755.127h0A1.1,1.1,0,0,1,396.228,214.574Z" transform="translate(-376.255 -204.346)" fill="#ffd5b8"/>
    </g>
  </g>
</svg>
