<svg xmlns="http://www.w3.org/2000/svg" width="10.895" height="18" viewBox="0 0 10.895 18">
  <g id="low-price" transform="translate(-101)">
    <path id="Path_2597" data-name="Path 2597" d="M111.161,12.337h-1.97V10.153a5.448,5.448,0,1,0-5.487,0v2.185h-1.97a.528.528,0,0,0-.369.9l4.713,4.607a.528.528,0,0,0,.738,0l4.713-4.607a.528.528,0,0,0-.369-.9Zm-9.106-6.89a4.393,4.393,0,1,1,4.393,4.393,4.4,4.4,0,0,1-4.393-4.393Zm4.393,11.287-3.419-3.342h1.2a.528.528,0,0,0,.528-.528V10.627a5.449,5.449,0,0,0,3.376,0v2.238a.528.528,0,0,0,.528.528h1.2Z" transform="translate(0)" fill="#9a031e"/>
    <path id="Path_2598" data-name="Path 2598" d="M208.073,57.947c-.546-.2-.637-.334-.635-.557,0-.435.439-.482.625-.48.274,0,.709.13.709.471a.528.528,0,0,0,1.055,0,1.514,1.514,0,0,0-1.208-1.449v-.385a.527.527,0,1,0-1.055,0v.37a1.681,1.681,0,0,0-.612.289,1.459,1.459,0,0,0-.569,1.175c-.01,1.086.958,1.428,1.423,1.592" transform="translate(-101.676 -53.084)" fill="#9a031e"/>
    <path id="Path_2599" data-name="Path 2599" d="M208.855,139.3c.733.251,1.007.4,1,.684,0,.432-.431.48-.62.48h0c-.274,0-.709-.13-.709-.47a.527.527,0,1,0-1.055,0,1.514,1.514,0,0,0,1.208,1.449v.4a.528.528,0,1,0,1.055,0v-.386a1.683,1.683,0,0,0,.612-.289,1.458,1.458,0,0,0,.569-1.175c.01-1.1-1.151-1.5-1.792-1.719" transform="translate(-102.726 -133.411)" fill="#9a031e"/>
  </g>
</svg>
