<svg xmlns="http://www.w3.org/2000/svg" width="14.651" height="18" viewBox="0 0 14.651 18">
  <path id="online-learning_1_" data-name="online-learning (1)" d="M11.2,8.889a.628.628,0,0,0-1.256,0ZM9.948,18.168a.628.628,0,0,0,1.256,0ZM5.214,6.909l-.069.624Zm4.9,1.571.353-.519Zm-4.9,8.431.069-.624Zm4.9,1.571.353-.519ZM15.937,6.909l-.069-.624Zm-4.9,1.571-.353-.519Zm4.9,8.431-.069-.624Zm-4.9,1.571-.353-.519ZM8.587,4.294a.628.628,0,0,0,.629,1.087Zm3.349,1.087a.628.628,0,1,0,.629-1.087ZM6.868,2.413a.628.628,0,0,0,.718,1.03Zm6.7,1.03a.628.628,0,0,0,.718-1.03ZM9.948,8.889v9.279H11.2V8.889Zm-4.8-1.357A10.772,10.772,0,0,1,9.764,9l.707-1.038A11.985,11.985,0,0,0,5.282,6.284Zm0,10A10.771,10.771,0,0,1,9.764,19l.707-1.038a11.986,11.986,0,0,0-5.189-1.677ZM3.25,8.161V15.5H4.506V8.161Zm2.032,8.126a.839.839,0,0,1-.776-.79H3.25a2.093,2.093,0,0,0,1.9,2.039Zm0-10A1.851,1.851,0,0,0,3.25,8.161H4.506a.6.6,0,0,1,.639-.629Zm10.587,0A11.985,11.985,0,0,0,10.68,7.961L11.387,9a10.772,10.772,0,0,1,4.619-1.466Zm0,10a11.986,11.986,0,0,0-5.189,1.677L11.387,19a10.772,10.772,0,0,1,4.619-1.466Zm.776-8.126V15.5H17.9V8.161Zm-.639,9.374A2.093,2.093,0,0,0,17.9,15.5H16.645a.839.839,0,0,1-.776.79Zm0-10a.6.6,0,0,1,.639.629H17.9a1.851,1.851,0,0,0-2.032-1.877ZM9.764,19a1.447,1.447,0,0,0,1.622,0l-.707-1.038a.192.192,0,0,1-.208,0Zm0-10a1.447,1.447,0,0,0,1.622,0L10.68,7.961a.192.192,0,0,1-.208,0ZM9.216,5.381a2.706,2.706,0,0,1,1.36-.364V3.762a3.961,3.961,0,0,0-1.989.532Zm1.36-.364a2.706,2.706,0,0,1,1.36.364l.629-1.087a3.961,3.961,0,0,0-1.989-.532ZM7.586,3.443a5.206,5.206,0,0,1,2.99-.938V1.25A6.461,6.461,0,0,0,6.868,2.413Zm2.99-.938a5.205,5.205,0,0,1,2.99.938l.718-1.03A6.461,6.461,0,0,0,10.576,1.25Z" transform="translate(-3.25 -1.25)" fill="#9a031e"/>
</svg>
