<svg xmlns="http://www.w3.org/2000/svg" width="52.803" height="58" viewBox="0 0 52.803 58">
  <g id="premium-quality" transform="translate(-2.289 -0.584)">
    <path id="Path_2477" data-name="Path 2477" d="M44.473,6.55C32.955,6.55,25.046.584,19.5.584S2.29,3.774,2.29,29.306,17.971,58.584,24.075,58.584C52.66,58.586,64.871,6.55,44.473,6.55Z" transform="translate(0)" fill="#efefef"/>
    <path id="Path_2478" data-name="Path 2478" d="M33.5,9A2.5,2.5,0,1,1,36,6.5,2.5,2.5,0,0,1,33.5,9Zm0-3.33a.833.833,0,1,0,.833.833A.834.834,0,0,0,33.5,5.665Z" transform="translate(19.096 2.272)" fill="#a4afc1"/>
    <path id="Path_2479" data-name="Path 2479" d="M21.8,34.156l-1.3-7.771L24.734,28.5l3.259-6,3.259,6,4.234-2.111-1.3,7.771Z" transform="translate(12.112 14.577)" fill="#0f4c5c"/>
    <path id="Path_2480" data-name="Path 2480" d="M11.5,8.5H8.165A1.681,1.681,0,0,0,6.5,10.165V30.147a1.67,1.67,0,0,0,1.665,1.665H39.8a1.666,1.666,0,0,0,1.665-1.665V10.165A1.67,1.67,0,0,0,39.8,8.5H11.5Z" transform="translate(2.8 5.265)" fill="#0f4c5c"/>
    <path id="Path_2481" data-name="Path 2481" d="M21.989,33.141a13.316,13.316,0,0,0-10.607-3.63A1.662,1.662,0,0,1,9.5,27.879V8.314a1.685,1.685,0,0,1,1.449-1.665c3.813-.566,7.51.483,11.04,3.563,3.53-3.08,7.227-4.13,11.04-3.563a1.685,1.685,0,0,1,1.449,1.665v21.5s-8.4-1.041-12.489,3.33Z" transform="translate(4.796 3.936)" fill="#f3f3f1"/>
    <path id="Path_2482" data-name="Path 2482" d="M20.5,24.833,21.8,32.6h3.33l-1-5.96Z" transform="translate(12.112 16.129)" fill="#032933"/>
    <path id="Path_2483" data-name="Path 2483" d="M9.83,30.147V10.165A1.681,1.681,0,0,1,11.5,8.5H8.165A1.681,1.681,0,0,0,6.5,10.165V30.147a1.67,1.67,0,0,0,1.665,1.665H11.5A1.67,1.67,0,0,1,9.83,30.147Z" transform="translate(2.8 5.265)" fill="#032933"/>
    <path id="Path_2484" data-name="Path 2484" d="M14.912,29.493c-.067.007-.133.007-.2.013a1.662,1.662,0,0,1-1.882-1.632V8.309a1.685,1.685,0,0,1,1.449-1.665c.077-.012.152-.012.228-.022a12.742,12.742,0,0,0-3.558.022A1.685,1.685,0,0,0,9.5,8.309V27.875a1.662,1.662,0,0,0,1.882,1.632,12.707,12.707,0,0,1,3.53.1Z" transform="translate(4.796 3.941)" fill="#d5dbe1"/>
    <path id="Path_2485" data-name="Path 2485" d="M34.517,35.307H22.135a.832.832,0,0,1-.821-.694l-1.3-7.771a.831.831,0,0,1,1.192-.881l3.517,1.752,2.874-5.29a.867.867,0,0,1,1.464,0l2.874,5.29,3.517-1.752a.831.831,0,0,1,1.192.881l-1.3,7.771A.835.835,0,0,1,34.517,35.307ZM22.839,33.642H33.812l.916-5.463-2.774,1.382a.83.83,0,0,1-1.1-.346l-2.526-4.651L25.8,29.213a.831.831,0,0,1-1.1.346l-2.774-1.382Z" transform="translate(11.78 14.258)"/>
    <path id="Path_2486" data-name="Path 2486" d="M22.321,34.305a.836.836,0,0,1-.548-.2c-3.11-2.716-6.372-3.843-9.964-3.43a2.524,2.524,0,0,1-1.982-.621A2.459,2.459,0,0,1,9,28.211V8.646a2.527,2.527,0,0,1,2.166-2.489,13.949,13.949,0,0,1,11.155,3.3,13.954,13.954,0,0,1,11.161-3.3,2.524,2.524,0,0,1,2.16,2.488V26.812a.833.833,0,1,1-1.665,0V8.646a.854.854,0,0,0-.731-.841c-3.75-.559-7.145.545-10.375,3.367a.835.835,0,0,1-1.1,0C18.543,8.351,15.154,7.253,11.4,7.8a.853.853,0,0,0-.739.841V28.211a.788.788,0,0,0,.266.594.875.875,0,0,0,.684.21,14.061,14.061,0,0,1,10.705,3.369,14.119,14.119,0,0,1,10.031-3.422.833.833,0,1,1-.113,1.662,12.509,12.509,0,0,0-9.37,3.475.826.826,0,0,1-.548.206Z" transform="translate(4.463 3.604)"/>
    <path id="Path_2487" data-name="Path 2487" d="M29.828,29.647A.833.833,0,0,1,29,28.814V10.5a.834.834,0,0,0-.833-.833h-3.33a.833.833,0,1,1,0-1.665h3.33a2.5,2.5,0,0,1,2.5,2.5V28.814A.833.833,0,0,1,29.828,29.647Z" transform="translate(14.44 4.933)"/>
    <path id="Path_2488" data-name="Path 2488" d="M26.814,32.977H8.5a2.5,2.5,0,0,1-2.5-2.5V10.5A2.526,2.526,0,0,1,8.483,8h3.345a.833.833,0,1,1,0,1.665H8.5a.849.849,0,0,0-.833.833V30.479a.834.834,0,0,0,.833.833H26.814a.833.833,0,0,1,0,1.665Z" transform="translate(2.468 4.933)"/>
    <path id="Path_2489" data-name="Path 2489" d="M17.333,32.977a.833.833,0,0,1-.833-.833V8.833a.833.833,0,1,1,1.665,0V32.144A.833.833,0,0,1,17.333,32.977Z" transform="translate(9.452 4.933)"/>
  </g>
</svg>
