<svg id="snapchat_2_" data-name="snapchat (2)" xmlns="http://www.w3.org/2000/svg" width="32" height="32" viewBox="0 0 32 32">
  <g id="Group_1991" data-name="Group 1991" transform="translate(0 0)">
    <path id="Path_3014" data-name="Path 3014" d="M24,32H8a8,8,0,0,1-8-8V8A8,8,0,0,1,8,0H24a8,8,0,0,1,8,8V24a8,8,0,0,1-8,8" transform="translate(0 0)" fill="#ffd514" fill-rule="evenodd"/>
    <path id="Path_3015" data-name="Path 3015" d="M15,9h9A4.5,4.5,0,0,0,24.46.023C24.307.014,24.155,0,24,0H8A8,8,0,0,0,0,8V24A15,15,0,0,1,15,9" transform="translate(0 0)" fill="#fffa00" fill-rule="evenodd"/>
    <path id="Path_3016" data-name="Path 3016" d="M40,24a8,8,0,1,0,8,8V16a8,8,0,0,1-8,8" transform="translate(-16 -8)" fill="#ffaf28" fill-rule="evenodd"/>
  </g>
  <path id="Path_3017" data-name="Path 3017" d="M21.134,32a5.981,5.981,0,0,1-3.452-1.082,4.609,4.609,0,0,0-.914-.478A6.122,6.122,0,0,0,15,30.173a2.49,2.49,0,0,1-1.4-.318,1.517,1.517,0,0,1-.6-1.113c-.09-.031-.2-.061-.334-.1a6.313,6.313,0,0,1-1.533-.586,1.39,1.39,0,0,1-.861-1.264,1.3,1.3,0,0,1,.845-1.153,6.105,6.105,0,0,0,3.455-3.586c-.236-.167-.658-.44-.887-.589s-.4-.261-.505-.333a1.871,1.871,0,0,1-.923-2.31,1.65,1.65,0,0,1,1.622-1.055,2.287,2.287,0,0,1,.49.054c.156.034.308.077.452.123a15.967,15.967,0,0,1,.034-1.9A5.96,5.96,0,0,1,21.133,10.5a5.959,5.959,0,0,1,6.284,5.547,15.962,15.962,0,0,1,.035,1.9c.145-.047.3-.09.455-.124a2.286,2.286,0,0,1,.487-.053,1.651,1.651,0,0,1,1.622,1.055,1.871,1.871,0,0,1-.923,2.31c-.1.071-.289.193-.505.333s-.649.421-.888.589a6.109,6.109,0,0,0,3.454,3.585A1.3,1.3,0,0,1,32,26.8a1.389,1.389,0,0,1-.86,1.263,6.3,6.3,0,0,1-1.534.587c-.13.035-.244.065-.334.1a1.52,1.52,0,0,1-.606,1.114,2.488,2.488,0,0,1-1.4.316,6.111,6.111,0,0,0-1.768.265,4.6,4.6,0,0,0-.914.478A5.981,5.981,0,0,1,21.134,32Z" transform="translate(-5.134 -5.248)" fill="#b47800"/>
  <path id="Path_3018" data-name="Path 3018" d="M31.656,28.183c-.955.526-1.591.469-2.083.788-.42.271-.173.853-.476,1.063-.373.26-1.482-.017-2.911.454C24.99,30.882,24.26,32,22.134,32s-2.857-1.115-4.052-1.509c-1.429-.472-2.538-.195-2.911-.454-.3-.209-.057-.792-.476-1.062-.493-.319-1.128-.262-2.084-.788-.609-.336-.264-.543-.061-.642,3.461-1.674,4.011-4.261,4.037-4.456a.614.614,0,0,0-.192-.653c-.247-.229-1.344-.907-1.647-1.119-.5-.351-.724-.7-.561-1.135a.782.782,0,0,1,.962-.38c.552.12,1.089.4,1.4.471.358.09.329-.194.326-.257a20.154,20.154,0,0,1-.026-2.885A4.993,4.993,0,0,1,22.134,12.5a4.993,4.993,0,0,1,5.287,4.633,20.165,20.165,0,0,1-.026,2.885c0,.062-.034.346.325.257.31-.074.846-.351,1.4-.471a.782.782,0,0,1,.962.38c.164.432-.056.783-.56,1.135-.3.212-1.4.89-1.648,1.119a.613.613,0,0,0-.192.653c.027.194.576,2.782,4.037,4.456.2.1.548.305-.061.642Z" transform="translate(-6.134 -6.248)" fill="#fff"/>
</svg>
