<svg id="telegram" xmlns="http://www.w3.org/2000/svg" width="32" height="32" viewBox="0 0 32 32">
  <path id="Path_3028" data-name="Path 3028" d="M24,32H8a8,8,0,0,1-8-8V8A8,8,0,0,1,8,0H24a8,8,0,0,1,8,8V24a8,8,0,0,1-8,8" transform="translate(0 0)" fill="#199bdf" fill-rule="evenodd"/>
  <path id="Path_3029" data-name="Path 3029" d="M15,9h9A4.5,4.5,0,0,0,24.46.023C24.307.014,24.155,0,24,0H8A8,8,0,0,0,0,8V24A15,15,0,0,1,15,9" fill="#32b4ff" fill-rule="evenodd"/>
  <path id="Path_3030" data-name="Path 3030" d="M40,24a8,8,0,1,0,8,8V16a8,8,0,0,1-8,8" transform="translate(-16 -8)" fill="#0082be" fill-rule="evenodd"/>
  <path id="Path_3031" data-name="Path 3031" d="M26.726,16.918a1.5,1.5,0,0,1,2.055,1.615c-.583,3.789-1.651,10.733-2.218,14.419a1.5,1.5,0,0,1-2.372.979L17.65,29.112a1,1,0,0,1-.093-1.532l6.1-5.764a.25.25,0,0,0-.308-.391l-8.069,5.262a3,3,0,0,1-2.366.4L9.13,26.138a1,1,0,0,1-.139-1.894Z" transform="translate(-4.186 -8.402)" fill="#fff" fill-rule="evenodd"/>
</svg>
