<svg xmlns="http://www.w3.org/2000/svg" width="21.993" height="18" viewBox="0 0 21.993 18">
  <path id="twitter_1_" data-name="twitter (1)" d="M8.205,18a18.871,18.871,0,0,1-2.915-.231A13.679,13.679,0,0,1,1.3,16.318L0,15.606l1.411-.464c1.542-.507,2.48-.822,3.642-1.314a4.845,4.845,0,0,1-2.49-2.886l-.328-1,.269.041a4.894,4.894,0,0,1-.613-.756A4.64,4.64,0,0,1,1.1,6.472l.062-.87.521.2a4.868,4.868,0,0,1-.472-1.322A5.031,5.031,0,0,1,1.75,1.1L2.2.263,2.81.991a11.163,11.163,0,0,0,7.232,4.072,4.326,4.326,0,0,1,.263-2.3A4.3,4.3,0,0,1,12.054.759,5.254,5.254,0,0,1,15.1.01,4.87,4.87,0,0,1,18.1,1.245a10.05,10.05,0,0,0,1.1-.366c.24-.09.513-.193.854-.311L21.3.136l-.819,2.34c.054,0,.11-.008.168-.011L21.993,2.4,21.2,3.488c-.045.062-.057.08-.073.1-.064.1-.143.216-1.232,1.67A2.05,2.05,0,0,0,19.512,6.6a12.627,12.627,0,0,1-.689,5.079,8.987,8.987,0,0,1-2.413,3.574,10.656,10.656,0,0,1-5.051,2.442A15.549,15.549,0,0,1,8.205,18Zm0,0" transform="translate(0)" fill="#5f0f40"/>
</svg>
