<svg xmlns="http://www.w3.org/2000/svg" width="53.356" height="58" viewBox="0 0 53.356 58">
  <g id="video-player" transform="translate(-1.666 -0.583)">
    <path id="Path_2490" data-name="Path 2490" d="M44.472,52.617c-11.517,0-19.426,5.967-24.976,5.967S2.29,55.392,2.29,29.861,17.969.583,24.075.583c28.584,0,40.794,52.034,20.4,52.034Z" transform="translate(0.415 0)" fill="#efefef"/>
    <g id="Group_1470" data-name="Group 1470" transform="translate(1.666 2.022)">
      <path id="Path_2491" data-name="Path 2491" d="M0,0H3.33V1.665H0Z" transform="translate(0 9.122) rotate(-45)" fill="#a4afc1"/>
      <path id="Path_2492" data-name="Path 2492" d="M0,0H3.33V1.665H0Z" transform="translate(6.77 2.354) rotate(-45)" fill="#a4afc1"/>
      <path id="Path_2493" data-name="Path 2493" d="M0,0H1.665V3.33H0Z" transform="translate(0.001 1.47) rotate(-45)" fill="#a4afc1"/>
    </g>
    <path id="Path_2494" data-name="Path 2494" d="M41.467,44.8H9.83a3.33,3.33,0,0,1-3.33-3.33V9.83A3.33,3.33,0,0,1,9.83,6.5H41.467A3.33,3.33,0,0,1,44.8,9.83V41.467A3.33,3.33,0,0,1,41.467,44.8Z" transform="translate(3.215 3.935)" fill="#f3f3f1"/>
    <path id="Path_2495" data-name="Path 2495" d="M6.5,23.5v6.66a3.33,3.33,0,0,0,3.33,3.33H41.467a3.33,3.33,0,0,0,3.33-3.33V23.5Z" transform="translate(3.215 15.241)" fill="#e36414"/>
    <path id="Path_2496" data-name="Path 2496" d="M13.5,14.5v4.9a1.66,1.66,0,0,0,.789,1.426,12.239,12.239,0,0,0,13.408,0,1.66,1.66,0,0,0,.789-1.426V14.5Z" transform="translate(7.871 9.256)" fill="#e36414"/>
    <path id="Path_2497" data-name="Path 2497" d="M11.5,15.5l10.823-5,10.823,5-10.823,5Z" transform="translate(6.541 6.595)" fill="#e36414"/>
    <path id="Path_2498" data-name="Path 2498" d="M17.619,20.826A1.66,1.66,0,0,1,16.83,19.4V14.5H13.5v4.9a1.66,1.66,0,0,0,.789,1.426A12.458,12.458,0,0,0,22.658,22.7,13.766,13.766,0,0,1,17.619,20.826Z" transform="translate(7.871 9.256)" fill="#b44500"/>
    <path id="Path_2499" data-name="Path 2499" d="M14.83,15.5l9.158-4.227L22.323,10.5,11.5,15.5l10.823,5,1.665-.769Z" transform="translate(6.541 6.595)" fill="#b44500"/>
    <path id="Path_2500" data-name="Path 2500" d="M9.83,41.467V9.83A3.33,3.33,0,0,1,13.16,6.5H9.83A3.33,3.33,0,0,0,6.5,9.83V41.467A3.33,3.33,0,0,0,9.83,44.8h3.33A3.33,3.33,0,0,1,9.83,41.467Z" transform="translate(3.215 3.935)" fill="#d5dbe1"/>
    <path id="Path_2501" data-name="Path 2501" d="M9.83,30.16V23.5H6.5v6.66a3.33,3.33,0,0,0,3.33,3.33h3.33A3.33,3.33,0,0,1,9.83,30.16Z" transform="translate(3.215 15.241)" fill="#b44500"/>
    <path id="Path_2502" data-name="Path 2502" d="M21.325,23.99a13.818,13.818,0,0,1-7.131-2.117A2.5,2.5,0,0,1,13,19.733v-4.9a.833.833,0,1,1,1.665,0v4.9a.836.836,0,0,0,.383.711,11.374,11.374,0,0,0,12.555,0,.836.836,0,0,0,.383-.711v-4.9a.833.833,0,1,1,1.665,0v4.9a2.5,2.5,0,0,1-1.194,2.141,13.82,13.82,0,0,1-7.131,2.117Z" transform="translate(7.538 8.923)"/>
    <path id="Path_2503" data-name="Path 2503" d="M22.656,21.656a.831.831,0,0,1-.349-.076l-10.823-5a.833.833,0,0,1,0-1.512l10.823-5a.83.83,0,0,1,.7,0l10.823,5a.833.833,0,0,1,0,1.512L23,21.579A.831.831,0,0,1,22.656,21.656ZM13.82,15.828l8.836,4.078,8.836-4.078L22.656,11.75Z" transform="translate(6.208 6.263)"/>
    <path id="Path_2504" data-name="Path 2504" d="M41.8,45.962H10.163A4.168,4.168,0,0,1,6,41.8V10.163A4.168,4.168,0,0,1,10.163,6H41.8a4.168,4.168,0,0,1,4.163,4.163V41.8A4.168,4.168,0,0,1,41.8,45.962ZM10.163,7.665a2.5,2.5,0,0,0-2.5,2.5V41.8a2.5,2.5,0,0,0,2.5,2.5H41.8a2.5,2.5,0,0,0,2.5-2.5V10.163a2.5,2.5,0,0,0-2.5-2.5Z" transform="translate(2.883 3.602)"/>
    <path id="Path_2505" data-name="Path 2505" d="M45.129,24.665H6.833a.833.833,0,1,1,0-1.665h38.3a.833.833,0,1,1,0,1.665Z" transform="translate(2.883 14.909)"/>
    <path id="Path_2506" data-name="Path 2506" d="M38.139,27.665H9.833a.833.833,0,0,1,0-1.665H38.139a.833.833,0,1,1,0,1.665Z" transform="translate(4.878 16.904)"/>
    <path id="Path_2507" data-name="Path 2507" d="M14.833,30A.832.832,0,0,1,14,29.163v-3.33a.833.833,0,1,1,1.665,0v3.33A.832.832,0,0,1,14.833,30Z" transform="translate(8.203 16.239)"/>
  </g>
</svg>
