<svg id="whatsapp_6_" data-name="whatsapp (6)" xmlns="http://www.w3.org/2000/svg" width="32" height="32" viewBox="0 0 32 32">
  <path id="Path_3023" data-name="Path 3023" d="M24,32H8a8,8,0,0,1-8-8V8A8,8,0,0,1,8,0H24a8,8,0,0,1,8,8V24a8,8,0,0,1-8,8" transform="translate(0 0)" fill="#00d264" fill-rule="evenodd"/>
  <path id="Path_3024" data-name="Path 3024" d="M15,9h9A4.5,4.5,0,0,0,24.46.023C24.307.014,24.155,0,24,0H8A8,8,0,0,0,0,8V24A15,15,0,0,1,15,9" fill="#00eb78" fill-rule="evenodd"/>
  <path id="Path_3025" data-name="Path 3025" d="M40,24a8,8,0,1,0,8,8V16a8,8,0,0,1-8,8" transform="translate(-16 -8)" fill="#00b950" fill-rule="evenodd"/>
  <g id="Group_1992" data-name="Group 1992" transform="translate(4.999 3.998)">
    <path id="Path_3026" data-name="Path 3026" d="M15.836,27.545a1,1,0,0,1,.8.109,9.49,9.49,0,1,0-3.291-3.287,1,1,0,0,1,.108.794c-.278.986-.95,3.338-.95,3.338Zm-4.227-2.179a11.5,11.5,0,1,1,4.024,4.024l-4.768,1.362a.5.5,0,0,1-.618-.619Z" transform="translate(-9.998 -7.997)" fill="#fff" fill-rule="evenodd"/>
    <path id="Path_3027" data-name="Path 3027" d="M21.973,22.236a9.352,9.352,0,0,0,8.612,8.676h0a2.482,2.482,0,0,0,1.947-.72l.349-.349a.88.88,0,0,0,.257-.622V28.48a.5.5,0,0,0-.276-.447l-2.23-1.115a.5.5,0,0,0-.577.093l-.97.97a.5.5,0,0,1-.451.137h0A5,5,0,0,1,24.707,24.2v0a.5.5,0,0,1,.137-.451l.97-.97a.5.5,0,0,0,.094-.578l-1.115-2.229a.5.5,0,0,0-.448-.276h-.63a1.069,1.069,0,0,0-.794.353l-.332.369A2.43,2.43,0,0,0,21.97,22.2c0,.011,0,.022,0,.034Z" transform="translate(-15.981 -13.841)" fill="#fff" fill-rule="evenodd"/>
  </g>
</svg>
